<svg xmlns="http://www.w3.org/2000/svg" viewBox="0 0 300 300" fill="none">
  <rect width="300" height="300" rx="8" fill="#F3F4F6"/>
  <path d="M150 105c-12.15 0-22 9.85-22 22s9.85 22 22 22 22-9.85 22-22-9.85-22-22-22zm0 36c-7.72 0-14-6.28-14-14s6.28-14 14-14 14 6.28 14 14-6.28 14-14 14z" fill="#D1D5DB"/>
  <path d="M198 85H102c-8.84 0-16 7.16-16 16v98c0 8.84 7.16 16 16 16h96c8.84 0 16-7.16 16-16v-98c0-8.84-7.16-16-16-16zm8 114c0 4.41-3.59 8-8 8H102c-4.41 0-8-3.59-8-8v-18.34l28.69-28.69a4 4 0 0 1 5.66 0L150 173.63l29.66-29.66a4 4 0 0 1 5.66 0L206 164.66V199zm0-48.76-17.27-17.27a12 12 0 0 0-16.97 0L150 154.73l-21.66-21.66a12 12 0 0 0-16.97 0L94 150.41V101c0-4.41 3.59-8 8-8h96c4.41 0 8 3.59 8 8v49.24z" fill="#D1D5DB"/>
</svg>
